<?xml version="1.0" standalone="no"?>
<!DOCTYPE svg PUBLIC "-//W3C//DTD SVG 20010904//EN"
 "http://www.w3.org/TR/2001/REC-SVG-20010904/DTD/svg10.dtd">
<svg version="1.0" xmlns="http://www.w3.org/2000/svg"
 width="290.000000pt" height="309.000000pt" viewBox="0 0 290.000000 309.000000"
 preserveAspectRatio="xMidYMid meet">

<g transform="translate(0.000000,309.000000) scale(0.100000,-0.100000)"
fill="#fff" stroke="none">
<path d="M1521 3036 c2 -2 54 -18 114 -36 61 -17 116 -37 124 -44 8 -6 17 -11
20 -11 3 0 5 -3 4 -7 -2 -5 2 -8 7 -8 6 0 10 5 10 11 0 5 4 8 10 4 5 -3 7 -12
4 -19 -3 -7 2 -20 10 -29 9 -9 16 -20 16 -25 0 -6 6 -13 13 -15 8 -4 9 -6 0
-6 -7 -1 -2 -18 13 -46 14 -24 23 -48 21 -52 -3 -5 24 -40 59 -78 51 -56 63
-75 59 -93 -3 -13 -2 -21 3 -18 11 7 17 -74 16 -214 -2 -174 -4 -182 -52 -205
-23 -11 -42 -23 -42 -27 0 -13 71 -21 141 -16 93 7 152 43 195 118 92 159 115
181 199 188 49 4 55 7 55 27 0 49 -60 142 -143 221 -184 177 -388 278 -713
354 -129 30 -151 34 -143 26z"/>
<path d="M600 2739 c-22 -18 -22 -19 -3 -10 12 6 25 16 28 21 9 15 3 12 -25
-11z"/>
<path d="M495 2658 c-204 -158 -295 -230 -295 -235 0 -14 165 107 278 204 101
87 97 83 90 83 -3 0 -36 -24 -73 -52z"/>
<path d="M798 2615 c-36 -9 -81 -21 -98 -29 l-33 -13 35 -7 c20 -3 48 -2 62 4
38 14 45 12 16 -5 -24 -14 -23 -14 20 -7 25 4 115 6 200 6 132 -1 169 -5 250
-27 181 -48 328 -131 469 -263 45 -42 84 -75 86 -72 3 3 -36 45 -87 94 -223
215 -452 318 -733 329 -85 3 -139 0 -187 -10z m-58 -29 c0 -3 -4 -8 -10 -11
-5 -3 -10 -1 -10 4 0 6 5 11 10 11 6 0 10 -2 10 -4z m137 -2 c-3 -3 -12 -4
-19 -1 -8 3 -5 6 6 6 11 1 17 -2 13 -5z"/>
<path d="M635 2560 c-3 -6 1 -7 9 -4 18 7 21 14 7 14 -6 0 -13 -4 -16 -10z"/>
<path d="M1015 2416 c-100 -32 -156 -77 -261 -212 -241 -307 -384 -727 -384
-1126 0 -51 7 -151 15 -222 16 -137 14 -172 -4 -84 -27 123 -35 213 -36 390 0
102 -3 182 -6 176 -4 -5 -9 2 -13 16 -3 14 -12 26 -19 26 -6 0 -28 17 -47 36
-19 20 -43 40 -52 45 -14 8 -18 23 -18 69 0 39 -5 64 -15 74 -8 8 -15 22 -15
30 0 9 -5 16 -10 16 -6 0 -18 17 -28 38 -9 20 -25 45 -36 54 -13 12 -17 27
-14 48 5 36 1 38 -13 8 -8 -19 -9 -17 -5 15 4 34 3 36 -11 22 -8 -9 -13 -19
-10 -22 4 -3 2 -13 -3 -22 -4 -9 -14 -71 -20 -138 -29 -299 47 -702 189 -998
60 -126 102 -193 179 -282 58 -67 188 -180 197 -171 3 2 -11 43 -30 91 -19 48
-35 89 -35 92 0 4 21 -12 47 -33 218 -182 537 -305 888 -343 188 -20 580 4
644 41 19 10 21 10 -97 41 -46 12 -81 24 -78 26 3 3 38 20 79 37 168 73 306
168 441 302 86 86 169 189 164 203 -2 5 -84 69 -183 144 -99 74 -231 178 -294
232 -98 84 -117 105 -143 162 -28 58 -30 72 -26 137 4 54 12 86 30 119 19 34
23 49 15 55 -20 15 -455 272 -473 279 -9 3 7 -17 34 -44 32 -32 44 -49 31 -46
-13 4 -19 0 -19 -11 0 -19 -11 -21 -29 -3 -11 10 -11 8 -2 -11 11 -20 10 -23
-6 -20 -10 2 -22 8 -26 13 -5 6 -7 4 -4 -6 3 -9 1 -22 -3 -29 -13 -21 -23 53
-15 108 11 73 -3 45 -21 -43 -13 -61 -15 -112 -11 -215 3 -74 8 -146 11 -160
6 -22 5 -23 -3 -4 -5 12 -13 42 -16 68 l-7 46 -42 -6 c-22 -3 -61 -10 -86 -15
-36 -8 -106 -7 -182 0 -5 1 -8 8 -8 16 0 11 -12 15 -40 16 -22 1 -46 2 -52 3
-7 1 -16 -3 -20 -9 -4 -5 -8 1 -9 15 l-1 25 -7 -25 c-7 -22 -9 -19 -16 22 -9
56 7 186 36 287 11 41 18 75 16 78 -8 7 -66 -182 -83 -272 -26 -129 -23 -356
5 -495 24 -121 26 -164 5 -106 -7 21 -11 43 -7 49 3 5 2 7 -4 4 -6 -4 -17 32
-27 91 -10 53 -19 107 -22 120 -3 13 -12 22 -24 22 -10 0 -21 4 -25 10 -3 5
-33 17 -65 26 -34 9 -60 22 -60 30 0 7 -10 14 -22 16 -13 2 -24 10 -25 18 -11
86 -11 86 -63 99 -30 8 -50 18 -50 27 0 8 -6 14 -14 14 -7 0 -19 7 -26 15 -7
8 -21 15 -31 15 -66 0 3 211 149 452 158 259 278 362 439 375 l61 6 1 -68 c1
-102 45 -187 121 -234 55 -33 78 -27 36 9 -55 49 -86 121 -86 201 0 37 4 70 9
74 6 3 46 -6 90 -21 l81 -27 0 -50 c0 -60 25 -106 73 -132 48 -25 119 -16 157
20 21 20 32 25 45 18 14 -8 10 -16 -27 -58 -30 -34 -36 -44 -19 -36 12 7 35
27 51 44 l27 31 62 -37 c90 -54 95 -45 9 16 -40 28 -84 60 -98 70 -314 223
-499 292 -655 243z m-558 -908 c-3 -8 -6 -5 -6 6 -1 11 2 17 5 13 3 -3 4 -12
1 -19z"/>
<path d="M2224 1866 c-10 -26 1 -51 23 -54 25 -4 46 27 37 52 -8 20 -53 21
-60 2z"/>
<path d="M2380 1385 c25 -13 50 -24 55 -24 6 0 -10 11 -35 24 -25 13 -49 24
-55 24 -5 0 10 -11 35 -24z"/>
<path d="M2450 1355 c0 -2 15 -12 33 -21 17 -10 37 -24 44 -33 11 -14 12 -14
13 -1 0 8 -9 21 -21 28 -25 16 -69 33 -69 27z"/>
</g>
</svg>
