<?xml version="1.0" standalone="no"?>
<!DOCTYPE svg PUBLIC "-//W3C//DTD SVG 20010904//EN"
 "http://www.w3.org/TR/2001/REC-SVG-20010904/DTD/svg10.dtd">
<svg version="1.0" xmlns="http://www.w3.org/2000/svg"
 width="512.000000pt" height="512.000000pt" viewBox="0 0 512.000000 512.000000"
 preserveAspectRatio="xMidYMid meet">

<g transform="translate(0.000000,512.000000) scale(0.100000,-0.100000)"
fill="#000000" stroke="none">
<path d="M2495 4581 c-27 -13 -195 -175 -512 -492 -414 -416 -472 -479 -478
-511 -10 -54 2 -102 32 -139 50 -59 124 -74 191 -40 20 11 179 162 352 335
l315 316 5 -1214 c5 -1207 5 -1215 26 -1242 39 -53 71 -69 134 -69 63 0 95 16
134 69 21 27 21 33 24 1244 l2 1216 338 -336 c226 -226 346 -339 365 -344 44
-10 112 1 145 24 56 41 80 139 48 200 -22 42 -967 980 -999 991 -41 16 -76 13
-122 -8z"/>
<path d="M454 2016 c-38 -17 -71 -57 -85 -105 -7 -25 -9 -148 -7 -376 4 -336
5 -341 32 -430 69 -227 215 -400 421 -500 179 -87 25 -80 1745 -80 1720 0
1566 -7 1745 80 211 102 365 291 427 520 19 73 22 110 25 425 4 344 4 345 -19
389 -30 58 -65 83 -126 89 -63 6 -120 -24 -151 -78 -20 -36 -21 -51 -21 -346
0 -346 -7 -403 -62 -507 -41 -78 -127 -164 -198 -199 -123 -61 -39 -58 -1620
-58 -1580 0 -1493 -3 -1618 58 -76 36 -162 123 -201 201 -54 106 -61 161 -61
505 0 295 -1 310 -21 346 -39 69 -130 98 -205 66z"/>
</g>
</svg>
