<?xml version="1.0" standalone="no"?>
<!DOCTYPE svg PUBLIC "-//W3C//DTD SVG 20010904//EN"
 "http://www.w3.org/TR/2001/REC-SVG-20010904/DTD/svg10.dtd">
<svg version="1.0" xmlns="http://www.w3.org/2000/svg"
 width="32.000000pt" height="32.000000pt" viewBox="0 0 32.000000 32.000000"
 preserveAspectRatio="xMidYMid meet">

<g transform="translate(0.000000,32.000000) scale(0.100000,-0.100000)"
fill="#000000" stroke="none">
<path d="M115 271 c-28 -12 -70 -59 -61 -68 4 -4 15 2 24 13 37 47 94 57 133
24 20 -16 21 -19 7 -20 -34 0 -18 -20 17 -20 33 0 35 2 35 35 0 19 -4 35 -10
35 -5 0 -10 -7 -10 -17 0 -15 -2 -15 -19 1 -23 20 -87 30 -116 17z"/>
<path d="M50 85 c0 -19 5 -35 10 -35 6 0 10 7 10 17 0 14 2 14 21 -3 15 -13
36 -19 70 -19 41 0 53 5 81 32 17 18 29 36 24 40 -4 4 -15 -2 -24 -13 -33 -42
-79 -54 -127 -32 -28 12 -33 28 -10 28 8 0 15 5 15 10 0 6 -16 10 -35 10 -33
0 -35 -2 -35 -35z"/>
</g>
</svg>
